<svg id="Layer_3" height="512" viewBox="0 0 64 64" width="512" xmlns="http://www.w3.org/2000/svg" data-name="Layer 3"><path d="m24 38.816v3.184a3 3 0 0 0 3 3v17a1 1 0 0 0 1 1h8a1 1 0 0 0 1-1v-17a3 3 0 0 0 3-3v-3.184a3 3 0 0 0 2-2.816v-20a3 3 0 0 0 -2-2.816v-9.184a3 3 0 0 0 -3-3h-10a3 3 0 0 0 -3 3v9.184a3 3 0 0 0 -2 2.816v20a3 3 0 0 0 2 2.816zm11 22.184h-6v-16h6zm2-18h-10a1 1 0 0 1 -1-1v-3h12v3a1 1 0 0 1 -1 1zm-10-40h10a1 1 0 0 1 1 1v9h-12v-9a1 1 0 0 1 1-1zm-3 13a1 1 0 0 1 1-1h14a1 1 0 0 1 1 1v20a1 1 0 0 1 -1 1h-14a1 1 0 0 1 -1-1z"/><path d="m28 5h2v6h-2z"/><path d="m31 5h2v6h-2z"/><path d="m34 5h2v6h-2z"/></svg>